<?xml version="1.0" encoding="UTF-8"?>
<svg width="256" height="256" viewBox="0 0 64 64" fill="none" xmlns="http://www.w3.org/2000/svg">
  <!-- Simple octopus head -->
  <path fill="currentColor" d="M32 8c8.284 0 15 6.716 15 15v1.5c0 5.799-4.701 10.5-10.5 10.5h-9c-5.799 0-10.5-4.701-10.5-10.5V23C17 14.716 23.716 8 32 8z"/>
  <!-- Tentacle 1 (left) -->
  <path fill="currentColor" d="M18.5 33c-3.5 0-6 2.5-6 5.5 0 2.2 1.5 3.9 3.5 3.9 1.5 0 2.7-1.1 2.7-2.5 0-1.1-.7-2-1.7-2.3 1-1 2.4-1.6 3.7-1.6 3 0 5.3 2.2 5.3 5.2 0 4.1-3.7 7.8-9 7.8-4.8 0-8.3-3.1-8.3-7.6 0-5.8 4.9-10.9 9.8-11.4z" opacity=".95"/>
  <!-- Tentacle 2 (center) -->
  <path fill="currentColor" d="M30.5 33.2c-4.4 0-7.4 3.2-7.4 7.1 0 3 2.1 5.3 4.9 5.3 2.1 0 3.8-1.5 3.8-3.4 0-1.6-1.1-2.9-2.7-3.2 1.3-1.4 3.2-2.2 5.1-2.2 4.2 0 7.4 3.1 7.4 7.2 0 5.6-5 10.2-11.5 10.2-6 0-10.5-4.2-10.5-10.1 0-7.1 6.1-13.9 10.9-10.9z" opacity=".9"/>
  <!-- Tentacle 3 (right) -->
  <path fill="currentColor" d="M45.7 33.2c4.5 0 8.3 3.8 8.3 8.4 0 3.4-2.5 6-5.5 6-2.3 0-4.1-1.7-4.1-3.9 0-1.9 1.2-3.4 3-3.8-1-1.2-2.7-2-4.5-2-3.8 0-6.8 3-6.8 6.9 0 5.1 4.7 9.2 10.9 9.2 6 0 10.9-4.7 10.9-11 0-7.1-6-12.8-12.2-9.8z" opacity=".9"/>
  <!-- Eyes (optional dots; remove if you want pure silhouette) -->
  <circle cx="27.5" cy="22.5" r="2.1" fill="#fff"/>
  <circle cx="36.5" cy="22.5" r="2.1" fill="#fff"/>
  <circle cx="27.5" cy="22.5" r="0.9" fill="currentColor"/>
  <circle cx="36.5" cy="22.5" r="0.9" fill="currentColor"/>
</svg>
