<?xml version="1.0" encoding="UTF-8"?>
<svg
  xmlns="http://www.w3.org/2000/svg"
  viewBox="0 0 64 64"
  fill="currentColor"
  role="img"
  aria-label="Octopus Tennis logo mark"
>
  <!-- Main octopus body -->
  <circle cx="32" cy="20" r="12" />
  
  <!-- Eyes -->
  <circle cx="28" cy="18" r="2.5" fill="#fff"/>
  <circle cx="36" cy="18" r="2.5" fill="#fff"/>
  
  <!-- Tentacles -->
  <path d="M12 42c-3.5 0-6 2.5-6 5.5s2.5 5.5 6 5.5c2.5 0 4.5-1.5 5.5-3.5 1-2 2-3 4-3h2v-5h-2c-4 0-6 1-8 2.5-1-0.5-2-1-3.5-1z"/>
  <path d="M52 42c3.5 0 6 2.5 6 5.5s-2.5 5.5-6 5.5c-2.5 0-4.5-1.5-5.5-3.5-1-2-2-3-4-3h-2v-5h2c4 0 6 1 8 2.5 1-0.5 2-1 3.5-1z"/>
  <path d="M25 50c-1.5 0-2.5 1.5-2.5 3s1 3 2.5 3 2.5-1.5 2.5-3-1-3-2.5-3zM39 50c-1.5 0-2.5 1.5-2.5 3s1 3 2.5 3 2.5-1.5 2.5-3-1-3-2.5-3z"/>
</svg>

