<?xml version="1.0" encoding="UTF-8"?>
<svg width="64" height="64" viewBox="0 0 64 64" xmlns="http://www.w3.org/2000/svg" aria-hidden="true">
  <!-- Octopus mark, single color -->
  <path fill="currentColor" d="M32 10c8.3 0 15 6.7 15 15v1.2c0 5.7-4.6 10.3-10.3 10.3H27.3C21.6 36.5 17 31.9 17 26.2V25c0-8.3 6.7-15 15-15zM18.5 36.8c-3.3 0-5.7 2.5-5.7 5.2 0 2 1.3 3.5 3 3.5 1.4 0 2.5-1 2.5-2.3 0-1-.6-1.8-1.5-2 1-1 2.3-1.6 3.6-1.6 2.9 0 5 2 5 4.9 0 3.9-3.6 7.4-8.6 7.4-4.5 0-7.9-3-7.9-7.2 0-5.5 4.7-10.3 9.6-10.9zM30.8 36.9c-4.2 0-7 3-7 6.7 0 2.8 1.9 4.9 4.4 4.9 1.9 0 3.5-1.3 3.5-3 0-1.4-1-2.6-2.4-2.9 1.2-1.3 2.9-2 4.6-2 4 0 7 3 7 6.8 0 5.3-4.8 9.7-10.9 9.7-5.7 0-9.9-4-9.9-9.6 0-6.8 6-13.3 10.7-10.6zM45.5 36.9c4.3 0 7.9 3.6 7.9 8 0 3.2-2.4 5.6-5.2 5.6-2.1 0-3.8-1.6-3.8-3.6 0-1.6 1.1-3 2.7-3.3-1-1.1-2.5-1.8-4.2-1.8-3.6 0-6.4 2.9-6.4 6.6 0 4.9 4.5 8.8 10.3 8.8 5.7 0 10.3-4.5 10.3-10.6 0-6.8-5.7-12.3-11.6-9.7z"/>
  <!-- Eyes -->
  <circle cx="27" cy="23" r="2" fill="#fff"/>
  <circle cx="37" cy="23" r="2" fill="#fff"/>
  <circle cx="27" cy="23" r="0.9" fill="currentColor"/>
  <circle cx="37" cy="23" r="0.9" fill="currentColor"/>
</svg>
