<?xml version="1.0" encoding="UTF-8"?>
<svg xmlns="http://www.w3.org/2000/svg"
     viewBox="0 0 64 64"
     role="img" aria-label="Octopus Tennis logo mark">
  <!-- Whole silhouette uses currentColor -->
  <path fill="currentColor" d="M32 10c8.2 0 15 6.7 15 15v1.4c0 5.5-4.4 9.9-9.9 9.9h-10.2C21.4 36.3 17 31.9 17 26.4V25c0-8.3 6.8-15 15-15z
    M18.3 36.8c-4.7.5-9.3 5.3-9.3 10.8 0 4.1 3.2 7 7.8 7 5.2 0 8.8-3.5 8.8-7.5 0-2.8-2.2-4.8-4.9-4.8-1.3 0-2.5.6-3.4 1.5.9.3 1.6 1.2 1.6 2.2 0 1.5-1.3 2.6-2.8 2.6-1.9 0-3.2-1.6-3.2-3.6 0-2.8 2.5-5.2 5.4-5.2.4 0 .8 0 1.2.2l.2-2.2c-.5-.1-1-.2-1.4-.2z
    M30.9 36.8c-5.2 2.7-10.6 10.1-4.6 15.2 2 1.7 4.7 2.5 7.8 2.5 6.5 0 11.2-4.5 11.2-10 0-3.7-3-6.7-6.9-6.7-1.8 0-3.4.7-4.6 2 .9.4 1.6 1.4 1.6 2.7 0 1.7-1.5 3.1-3.4 3.1-2.5 0-4.4-2.1-4.4-4.9 0-1.9.8-3.7 2.3-5.1z
    M45.9 36.8c6.1-2.6 11.7 2.9 11.7 9.8 0 6.1-4.7 10.6-10.4 10.6-6 0-10.6-3.9-10.6-8.8 0-3.8 2.8-6.6 6.4-6.6 1.7 0 3.2.6 4.2 1.8-1.6.3-2.7 1.7-2.7 3.4 0 2.1 1.7 3.7 3.9 3.7 2.9 0 5.1-2.4 5.1-5.6 0-4.3-3.6-7.8-7.6-7.3z"/>
  <!-- Eyes (small cutouts) -->
  <circle cx="27.5" cy="22" r="2.1" fill="#fff"/>
  <circle cx="36.5" cy="22" r="2.1" fill="#fff"/>
  <circle cx="27.5" cy="22" r="0.9" fill="currentColor"/>
  <circle cx="36.5" cy="22" r="0.9" fill="currentColor"/>
</svg>
